# xmcd
#
# Track frame offsets:
#	150
#	11623
#	30342
#	46522
#	59492
#	75318
#	94332
#	113168
#	135777
#	146068
#	160275
#	171516
#	191295
#	208326
#	225462
#	241556
#	252259
#	264388
#	277690
#
# Disc length: 3890 seconds
#
# Revision: 1
# Processed by: cddbd v1.5.2PL0 Copyright (c) Steve Scherf et al.
# Submitted via: audiograbber 1.83.01
#
DISCID=ec0f3013
DTITLE=Various Artist - Christmas 2010
DYEAR=1900
DGENRE=
TTITLE0=Fox Brothers - Christmas Times Acoming
TTITLE1=Voices Of Glory - Holy, Holy, Holy
TTITLE2=Ray Stevens - Nightmare Before Christmas
TTITLE3=Joan Gregory - Do You Hear What I Hear
TTITLE4=Allen Karl - It Wouldn't Be The Holiday
TTITLE5=Brian Hargiss - Watching My Flock By  Night
TTITLE6=Walt Mills - Christmas All Year Long
TTITLE7=Aven Grace - Any Place Warm
TTITLE8=Royal Wade Kimes - Mistletoe
TTITLE9=Denny Yeary - White Christmas
TTITLE10=Allen Karl - Santa Looks A Lot Like Daddy
TTITLE11=Precious Jade - Let Peace And Harmony Prevail
TTITLE12=Keith Caldwell - Where Is The Birthday Boy
TTITLE13=Allen Karl - I Pray
TTITLE14=Jerry McArthur - All I Want For Christmas Is That Swuing
TTITLE15=Grace Jacobsen - Christmas Time Is Here
TTITLE16=Gene Farington - Country Christmas
TTITLE17=Allen Karl - Lionel
TTITLE18=An American Family - Whats Happening To America
EXTD=
EXTT0=
EXTT1=
EXTT2=
EXTT3=
EXTT4=
EXTT5=
EXTT6=
EXTT7=
EXTT8=
EXTT9=
EXTT10=
EXTT11=
EXTT12=
EXTT13=
EXTT14=
EXTT15=
EXTT16=
EXTT17=
EXTT18=
PLAYORDER=
